<svg xmlns="http://www.w3.org/2000/svg" width="454.689" height="398" viewBox="0 0 454.689 398">
  <g id="Group_21" data-name="Group 21" transform="translate(-225.019 -251)">
    <g id="Group_18" data-name="Group 18">
      <path id="Path_83" data-name="Path 83" d="M324.311,442.4" fill="#528a30"/>
      <path id="Path_84" data-name="Path 84" d="M323.24,433.425s170.4,70.41,266.182,2.452c0,0-54.049,89.748-308.537,13.912Z" fill="#ec8a42"/>
      <path id="Path_85" data-name="Path 85" d="M326.876,471.724s132.61,33.135,221.055,4.338,56.208-78.523,34.134-101.2c0,0,49.715,27.23,33.963,71.667-17.79,50.188-155.01,83.978-304.758,42.012Z" fill="#ec8a42"/>
      <g id="Group_17" data-name="Group 17">
        <g id="Group_16" data-name="Group 16">
          <g id="Group_15" data-name="Group 15">
            <path id="Path_86" data-name="Path 86" d="M361.48,432.96a2.079,2.079,0,0,1,.476.238.993.993,0,0,0-.306-.1l-.034-.034A.5.5,0,0,1,361.48,432.96Z" fill="#6d6f72"/>
            <path id="Path_87" data-name="Path 87" d="M362.67,433.47v.034a3.311,3.311,0,0,1-.476-.2C362.364,433.368,362.5,433.4,362.67,433.47Z" fill="#6d6f72"/>
            <path id="Path_88" data-name="Path 88" d="M418.24,254.813V440.588l-27.474-3.029V263.277L411.966,251Z" fill="#6d6f72"/>
            <path id="Path_89" data-name="Path 89" d="M516.046,327.041v117.3l-27.474,2.209v-133Z" fill="#6d6f72"/>
            <path id="Path_90" data-name="Path 90" d="M462.039,331.609v15.333L436.1,329.977l-11.423-7.446V307.4l34.849,22.575Z" fill="#6d6f72"/>
            <path id="Path_91" data-name="Path 91" d="M462.039,306.857v15.334L424.674,297.78V282.65Z" fill="#6d6f72"/>
            <path id="Path_92" data-name="Path 92" d="M481.625,293.671v15.414l-12.791-7.545-3.353-1.974L418.24,270.01l-5.327-3.326L411.966,251l6.274,3.813,29.61,18.037,17.631,11.222,3.353,2Z" fill="#6d6f72"/>
            <path id="Path_93" data-name="Path 93" d="M462.039,355.068v15.367L424.674,349.73v-16.9Z" fill="#6d6f72"/>
            <path id="Path_94" data-name="Path 94" d="M462.039,379.479V395.56L424.674,378.6V360.576Z" fill="#6d6f72"/>
            <path id="Path_95" data-name="Path 95" d="M461.359,405.25v34l-29.307,3.978-9.112-1.156,1.734-1.5v-.952l.034-15.266V391.719Z" fill="#6d6f72"/>
            <path id="Path_96" data-name="Path 96" d="M481.625,293.671v148.5l-12.791,2.163V286.073Z" fill="#6d6f72"/>
            <path id="Path_97" data-name="Path 97" d="M365.357,435.646H362.67v-1.7A28.883,28.883,0,0,0,365.357,435.646Z" fill="#6d6f72"/>
            <path id="Path_98" data-name="Path 98" d="M384.906,323.551v112.1H367.94c-2.244-.884-4.182-1.666-5.27-2.142V330.147Z" fill="#6d6f72"/>
            <path id="Path_99" data-name="Path 99" d="M555.2,346.267v57.68l-22.228-10.3v-58.3Z" fill="#6d6f72"/>
            <path id="Path_100" data-name="Path 100" d="M555.2,415.872v21.353c-1.082.487-3.029,1.206-5.273,2.071l-16.955,3.931V405.569Z" fill="#6d6f72"/>
          </g>
        </g>
        <path id="Path_101" data-name="Path 101" d="M361.65,433.1a.469.469,0,0,0,.136.1c.034.034.1.034.136.1a4.651,4.651,0,0,0,.748.646" fill="none"/>
        <path id="Path_102" data-name="Path 102" d="M376.916,439.079c-1.847-.666-3.834-1.412-5.748-2.155C373.094,437.664,375.03,438.428,376.916,439.079Z" fill="#6d6f72"/>
        <path id="Path_103" data-name="Path 103" d="M376.848,441.187h-.1l-.034-.034A.2.2,0,0,0,376.848,441.187Z" fill="#6d6f72"/>
      </g>
      <path id="Path_104" data-name="Path 104" d="M555.2,346.267v20.2l-22.228-10.3-16.928-7.842-27.474-12.71V313.547l27.474,13.494,16.928,8.3Z" fill="#6d6f72"/>
      <path id="Path_105" data-name="Path 105" d="M555.2,371.686v32.26l-22.228-10.3L516.046,385.8l-27.474-12.736V351l27.474,13.494,16.928,8.329V360.761Z" fill="#6d6f72"/>
      <path id="Path_106" data-name="Path 106" d="M555.2,383.747v20.2l-22.228-10.3L516.046,385.8l-27.474-12.736V351l27.474,13.494,16.928,8.329Z" fill="#6d6f72"/>
      <path id="Path_107" data-name="Path 107" d="M335.837,431.755l27.73-10.307S624.5,488.776,573.518,375.67c0,0,34.84,25.061,9.886,53.165C554.386,461.515,440.467,469.567,335.837,431.755Z" fill="#ec8a42"/>
    </g>
    <g id="Group_19" data-name="Group 19">
      <path id="Path_108" data-name="Path 108" d="M252.621,536.055q4.476,0,8.206.373a32.011,32.011,0,0,1,6.714,1.346,17.073,17.073,0,0,1,5.263,2.757,14.6,14.6,0,0,1,3.813,4.6,40.123,40.123,0,0,1,4.455,10.776,47.139,47.139,0,0,1,1.223,10.859,49.139,49.139,0,0,1-1.057,10.4,37.125,37.125,0,0,1-4.123,10.319,15.629,15.629,0,0,1-8.642,7.419,43.685,43.685,0,0,1-14.36,1.99H225.019V536.055Zm-13.1,47.951h10.859a25.918,25.918,0,0,0,8.661-1.2,9.142,9.142,0,0,0,5.016-4.228,21.27,21.27,0,0,0,2.3-5.989,30.531,30.531,0,0,0,.6-6.154q0-6.963-2.4-10.693a13.876,13.876,0,0,0-2.528-3.191A11.066,11.066,0,0,0,259,550.581a13.254,13.254,0,0,0-3.771-.974,41.068,41.068,0,0,0-4.766-.249H239.524v11.315h16.827l-6.3,11.936H239.524Z" fill="#6d6f72"/>
      <path id="Path_109" data-name="Path 109" d="M301.194,536.055V596.9H286.605V536.055Z" fill="#6d6f72"/>
      <path id="Path_110" data-name="Path 110" d="M307.452,536.055h45.672l-6.548,11.936H321.958v13.594h29.716v11.894H321.958v11.439h29.716V596.9H307.452Zm17.117-13.014h9.739l7.295,9.781h-8.29l-3.895-5.263-4.1,5.263h-8.206Zm-6.092-12.019h9.159l4.683,9.45h-5.844l-8-9.2Z" fill="#6d6f72"/>
      <path id="Path_111" data-name="Path 111" d="M378.7,536.055l18.443,50.562V536.055h13.387V596.9h-23l-17.282-49.237V596.9H356.729V536.055Z" fill="#6d6f72"/>
      <path id="Path_112" data-name="Path 112" d="M461.211,564.9v32H446.706V536.055h33.777a30.837,30.837,0,0,1,9.926,1.471,11.471,11.471,0,0,1,6.445,5.036,21.223,21.223,0,0,1,2.9,6.589,32.15,32.15,0,0,1,.663,6.838,32.941,32.941,0,0,1-.5,6.093,23.533,23.533,0,0,1-2.777,6.714,11.743,11.743,0,0,1-6.984,5.595,42.369,42.369,0,0,1-12.661,1.534H470.2Zm0-1.865h12.807q5.471,0,7.5-.87A5.1,5.1,0,0,0,484.4,559.8a9.138,9.138,0,0,0,.767-4.062,8.72,8.72,0,0,0-.7-3.73,5.325,5.325,0,0,0-3.088-2.093,25.069,25.069,0,0,0-7.066-.726h-13.1Z" fill="#6d6f72"/>
      <path id="Path_113" data-name="Path 113" d="M505.268,536.055h14.5v23.5h21.469v-23.5h14.464V596.9H541.241V561.585l-7.129,11.106h-14.34V596.9h-14.5Z" fill="#6d6f72"/>
      <path id="Path_114" data-name="Path 114" d="M600.59,536.055,622.68,596.9H607.387l-4.062-11.025H589.317l-7.129-12.06L573.443,596.9H557.736l22.5-60.841ZM582.6,572.691h16.288l-8.123-22.918Zm16.2-50.23-8,9.159h-5.844l4.683-9.408h9.16Z" fill="#6d6f72"/>
      <path id="Path_115" data-name="Path 115" d="M623.841,536.055h55.867l-6.963,11.936h-14.8v48.9H643.526v-48.9H623.841Z" fill="#6d6f72"/>
    </g>
    <g id="Group_20" data-name="Group 20">
      <path id="Path_116" data-name="Path 116" d="M296.93,648.353h-4.917V621.881h6.246c.688,0,1.26.007,1.715.018l1.26.035a5.757,5.757,0,0,1,.9.079,8.724,8.724,0,0,1,1.094.254,6.654,6.654,0,0,1,2.188,1,7.86,7.86,0,0,1,2.571,2.9,7.986,7.986,0,0,1,.946,3.771,9.08,9.08,0,0,1-.805,3.788,7.87,7.87,0,0,1-2.345,2.982,6.375,6.375,0,0,1-2.432,1.209,10.62,10.62,0,0,1-1.155.271,6.712,6.712,0,0,1-1.138.1c-.618,0-1.183.007-1.7.018l-1.469.035h-.962Zm0-14.8h1.837c.221,0,.513-.005.875-.017s.588-.018.718-.018a2.988,2.988,0,0,0,.6-.061,4.761,4.761,0,0,0,.655-.183,3.4,3.4,0,0,0,1.741-1.242,3.331,3.331,0,0,0,.657-2.03,3.035,3.035,0,0,0-.691-2,3.551,3.551,0,0,0-1.846-1.147c-.268-.057-.475-.1-.621-.121a3.251,3.251,0,0,0-.534-.036l-1.469-.053H296.93Z" fill="#6d6f72"/>
      <path id="Path_117" data-name="Path 117" d="M333.579,648.353V621.881h7.681c.746,0,1.423.025,2.029.071a10.884,10.884,0,0,1,1.593.227,7.635,7.635,0,0,1,3.263,1.575,8.47,8.47,0,0,1,2.231,2.9,8.242,8.242,0,0,1,.839,3.6,8.055,8.055,0,0,1-.139,1.505,9.42,9.42,0,0,1-.472,1.592,7.756,7.756,0,0,1-1.549,2.633,8.175,8.175,0,0,1-2.178,1.671,11.3,11.3,0,0,1-2.537.91l7.156,9.78h-6.054L338.5,638.206v10.147Zm4.917-13.874h2.677a9.01,9.01,0,0,0,2.065-.192,3.977,3.977,0,0,0,1.855-.91,3.819,3.819,0,0,0,1.207-2.87,3.991,3.991,0,0,0-.35-1.662,3.414,3.414,0,0,0-1.085-1.321,4.323,4.323,0,0,0-1.732-.761c-.21-.034-.473-.064-.787-.087s-.7-.036-1.138-.036H338.5Z" fill="#6d6f72"/>
      <path id="Path_118" data-name="Path 118" d="M388.3,621.374a13.814,13.814,0,1,1-9.762,4.051A13.265,13.265,0,0,1,388.3,621.374Zm0,4.76a8.513,8.513,0,0,0-6.29,2.632,8.73,8.73,0,0,0-2.6,6.36,8.869,8.869,0,0,0,2.633,6.387,8.568,8.568,0,0,0,12.509,0,8.87,8.87,0,0,0,2.634-6.387,8.713,8.713,0,0,0-2.6-6.368A8.523,8.523,0,0,0,388.3,626.134Z" fill="#6d6f72"/>
      <path id="Path_119" data-name="Path 119" d="M432.372,648.353h-4.915V621.881H433.7c.686,0,1.258.007,1.713.018l1.259.035a5.759,5.759,0,0,1,.9.079,8.831,8.831,0,0,1,1.1.254,6.654,6.654,0,0,1,2.184,1,7.836,7.836,0,0,1,2.572,2.9,7.961,7.961,0,0,1,.945,3.771,9.079,9.079,0,0,1-.8,3.788,7.863,7.863,0,0,1-2.346,2.982,6.359,6.359,0,0,1-2.43,1.209,10.675,10.675,0,0,1-1.155.271,6.732,6.732,0,0,1-1.139.1c-.618,0-1.182.007-1.7.018l-1.468.035h-.964Zm0-14.8h1.838c.221,0,.513-.005.875-.017s.588-.018.716-.018a2.993,2.993,0,0,0,.605-.061,4.822,4.822,0,0,0,.657-.183,3.412,3.412,0,0,0,1.74-1.242,3.351,3.351,0,0,0,.657-2.03,3.036,3.036,0,0,0-.692-2,3.542,3.542,0,0,0-1.847-1.147c-.267-.057-.474-.1-.621-.121a3.218,3.218,0,0,0-.534-.036l-1.468-.053h-1.926Z" fill="#6d6f72"/>
      <path id="Path_120" data-name="Path 120" d="M469.022,648.353V621.881h14.223v4.759h-9.308v6.089h8.924v4.759h-8.924v6.106h9.308v4.759Z" fill="#6d6f72"/>
      <path id="Path_121" data-name="Path 121" d="M509.154,648.353V621.881h7.68c.746,0,1.424.025,2.029.071a10.9,10.9,0,0,1,1.594.227,7.639,7.639,0,0,1,3.261,1.575,8.458,8.458,0,0,1,2.231,2.9,8.23,8.23,0,0,1,.841,3.6,8.139,8.139,0,0,1-.141,1.505,9.235,9.235,0,0,1-.472,1.592,7.709,7.709,0,0,1-1.55,2.633,8.119,8.119,0,0,1-2.176,1.671,11.346,11.346,0,0,1-2.536.91l7.153,9.78h-6.053l-6.946-10.147v10.147Zm4.915-13.874h2.677a9,9,0,0,0,2.065-.192,3.981,3.981,0,0,0,1.856-.91,3.818,3.818,0,0,0,1.206-2.87,3.96,3.96,0,0,0-.351-1.662,3.393,3.393,0,0,0-1.084-1.321,4.334,4.334,0,0,0-1.733-.761c-.21-.034-.471-.064-.787-.087s-.692-.036-1.136-.036h-2.713Z" fill="#6d6f72"/>
      <path id="Path_122" data-name="Path 122" d="M554.133,648.353V626.64h-4.882v-4.759h14.732v4.759h-4.952v21.713Z" fill="#6d6f72"/>
      <path id="Path_123" data-name="Path 123" d="M594.371,648.353v-9.78l-8.712-16.692h5.405l5.775,12.178,5.772-12.178h5.372l-8.714,16.692v9.78Z" fill="#6d6f72"/>
    </g>
  </g>
</svg>
