<svg xmlns="http://www.w3.org/2000/svg" width="454.689" height="398" viewBox="0 0 454.689 398">
  <g id="Group_7" data-name="Group 7" transform="translate(-2134.019 -251)">
    <g id="Group_4" data-name="Group 4">
      <path id="Path_1" data-name="Path 1" d="M2233.311,442.4" fill="#fff"/>
      <path id="Path_2" data-name="Path 2" d="M2232.24,433.425s170.4,70.41,266.182,2.452c0,0-54.049,89.748-308.537,13.912Z" fill="#fff"/>
      <path id="Path_3" data-name="Path 3" d="M2235.876,471.724s132.61,33.135,221.055,4.338,56.208-78.523,34.134-101.2c0,0,49.715,27.23,33.963,71.667-17.79,50.188-155.01,83.978-304.758,42.012Z" fill="#fff"/>
      <g id="Group_3" data-name="Group 3">
        <g id="Group_2" data-name="Group 2">
          <g id="Group_1" data-name="Group 1">
            <path id="Path_4" data-name="Path 4" d="M2270.48,432.96a2.08,2.08,0,0,1,.476.238.992.992,0,0,0-.306-.1l-.034-.034A.5.5,0,0,1,2270.48,432.96Z" fill="#fff"/>
            <path id="Path_5" data-name="Path 5" d="M2271.67,433.47v.034a3.315,3.315,0,0,1-.476-.2C2271.364,433.368,2271.5,433.4,2271.67,433.47Z" fill="#fff"/>
            <path id="Path_6" data-name="Path 6" d="M2327.24,254.813V440.588l-27.474-3.029V263.277l21.2-12.277Z" fill="#fff"/>
            <path id="Path_7" data-name="Path 7" d="M2425.046,327.041v117.3l-27.474,2.209v-133Z" fill="#fff"/>
            <path id="Path_8" data-name="Path 8" d="M2371.039,331.609v15.333L2345.1,329.977l-11.424-7.446V307.4l34.849,22.575Z" fill="#fff"/>
            <path id="Path_9" data-name="Path 9" d="M2371.039,306.857v15.334l-37.365-24.411V282.65Z" fill="#fff"/>
            <path id="Path_10" data-name="Path 10" d="M2390.625,293.671v15.414l-12.791-7.545-3.353-1.974L2327.24,270.01l-5.327-3.326L2320.966,251l6.274,3.813,29.611,18.037,17.631,11.222,3.353,2Z" fill="#fff"/>
            <path id="Path_11" data-name="Path 11" d="M2371.039,355.068v15.367l-37.365-20.705v-16.9Z" fill="#fff"/>
            <path id="Path_12" data-name="Path 12" d="M2371.039,379.479V395.56L2333.674,378.6V360.576Z" fill="#fff"/>
            <path id="Path_13" data-name="Path 13" d="M2370.359,405.25v34l-29.307,3.978-9.112-1.156,1.734-1.5v-.952l.034-15.266V391.719Z" fill="#fff"/>
            <path id="Path_14" data-name="Path 14" d="M2390.625,293.671v148.5l-12.791,2.163V286.073Z" fill="#fff"/>
            <path id="Path_15" data-name="Path 15" d="M2274.357,435.646h-2.687v-1.7A28.892,28.892,0,0,0,2274.357,435.646Z" fill="#fff"/>
            <path id="Path_16" data-name="Path 16" d="M2293.906,323.551v112.1H2276.94c-2.244-.884-4.182-1.666-5.27-2.142V330.147Z" fill="#fff"/>
            <path id="Path_17" data-name="Path 17" d="M2464.2,346.267v57.68l-22.228-10.3v-58.3Z" fill="#fff"/>
            <path id="Path_18" data-name="Path 18" d="M2464.2,415.872v21.353c-1.082.487-3.029,1.206-5.273,2.071l-16.955,3.931V405.569Z" fill="#fff"/>
          </g>
        </g>
        <path id="Path_19" data-name="Path 19" d="M2270.65,433.1a.474.474,0,0,0,.136.1c.034.034.1.034.136.1a4.644,4.644,0,0,0,.748.646" fill="#fff"/>
        <path id="Path_20" data-name="Path 20" d="M2285.916,439.079c-1.847-.666-3.834-1.412-5.748-2.155C2282.094,437.664,2284.03,438.428,2285.916,439.079Z" fill="#fff"/>
        <path id="Path_21" data-name="Path 21" d="M2285.848,441.187h-.1l-.034-.034A.2.2,0,0,0,2285.848,441.187Z" fill="#fff"/>
      </g>
      <path id="Path_22" data-name="Path 22" d="M2464.2,346.267v20.2l-22.228-10.3-16.928-7.842-27.474-12.71V313.547l27.474,13.494,16.928,8.3Z" fill="#fff"/>
      <path id="Path_23" data-name="Path 23" d="M2464.2,371.686v32.26l-22.228-10.3-16.928-7.842-27.474-12.736V351l27.474,13.494,16.928,8.329V360.761Z" fill="#fff"/>
      <path id="Path_24" data-name="Path 24" d="M2464.2,383.747v20.2l-22.228-10.3-16.928-7.842-27.474-12.736V351l27.474,13.494,16.928,8.329Z" fill="#fff"/>
      <path id="Path_25" data-name="Path 25" d="M2244.837,431.755l27.73-10.307s260.929,67.328,209.951-45.778c0,0,34.84,25.061,9.886,53.165C2463.386,461.515,2349.467,469.567,2244.837,431.755Z" fill="#fff"/>
    </g>
    <g id="Group_5" data-name="Group 5">
      <path id="Path_26" data-name="Path 26" d="M2161.621,536.055q4.476,0,8.2.373a32.007,32.007,0,0,1,6.715,1.346,17.09,17.09,0,0,1,5.264,2.757,14.613,14.613,0,0,1,3.812,4.6,40.089,40.089,0,0,1,4.455,10.776,47.143,47.143,0,0,1,1.223,10.859,49.134,49.134,0,0,1-1.057,10.4,37.19,37.19,0,0,1-4.123,10.319,15.626,15.626,0,0,1-8.642,7.419,43.684,43.684,0,0,1-14.36,1.99h-29.094V536.055Zm-13.1,47.951h10.859a25.928,25.928,0,0,0,8.662-1.2,9.144,9.144,0,0,0,5.015-4.228,21.267,21.267,0,0,0,2.3-5.989,30.449,30.449,0,0,0,.6-6.154q0-6.963-2.4-10.693a13.876,13.876,0,0,0-2.528-3.191,11.093,11.093,0,0,0-3.025-1.969,13.268,13.268,0,0,0-3.772-.974,41.079,41.079,0,0,0-4.766-.249h-10.942v11.315h16.827l-6.3,11.936h-10.527Z" fill="#fff"/>
      <path id="Path_27" data-name="Path 27" d="M2210.193,536.055V596.9H2195.6V536.055Z" fill="#fff"/>
      <path id="Path_28" data-name="Path 28" d="M2216.452,536.055h45.672l-6.548,11.936h-24.618v13.594h29.716v11.894h-29.716v11.439h29.716V596.9h-44.222Zm17.116-13.014h9.741l7.294,9.781h-8.29l-3.9-5.263-4.1,5.263h-8.205Zm-6.091-12.019h9.159l4.682,9.45h-5.843l-8-9.2Z" fill="#fff"/>
      <path id="Path_29" data-name="Path 29" d="M2287.7,536.055l18.444,50.562V536.055h13.386V596.9h-23l-17.283-49.237V596.9h-13.511V536.055Z" fill="#fff"/>
      <path id="Path_30" data-name="Path 30" d="M2370.211,564.9v32h-14.506V536.055h33.778a30.837,30.837,0,0,1,9.926,1.471,11.47,11.47,0,0,1,6.445,5.036,21.2,21.2,0,0,1,2.9,6.589,32.14,32.14,0,0,1,.663,6.838,32.938,32.938,0,0,1-.5,6.093,23.524,23.524,0,0,1-2.777,6.714,11.743,11.743,0,0,1-6.984,5.595,42.368,42.368,0,0,1-12.661,1.534h-7.294Zm0-1.865h12.807q5.47,0,7.5-.87a5.1,5.1,0,0,0,2.879-2.362,9.138,9.138,0,0,0,.767-4.062,8.72,8.72,0,0,0-.7-3.73,5.325,5.325,0,0,0-3.088-2.093,25.069,25.069,0,0,0-7.066-.726h-13.1Z" fill="#fff"/>
      <path id="Path_31" data-name="Path 31" d="M2414.268,536.055h14.5v23.5h21.469v-23.5h14.464V596.9h-14.464V561.585l-7.129,11.106h-14.34V596.9h-14.5Z" fill="#fff"/>
      <path id="Path_32" data-name="Path 32" d="M2509.59,536.055l22.09,60.841h-15.293l-4.062-11.025h-14.008l-7.129-12.06-8.745,23.085h-15.707l22.5-60.841ZM2491.6,572.691h16.288l-8.123-22.918Zm16.205-50.23-8,9.159h-5.844l4.683-9.408h9.16Z" fill="#fff"/>
      <path id="Path_33" data-name="Path 33" d="M2532.841,536.055h55.867l-6.963,11.936h-14.8v48.9h-14.423v-48.9h-19.685Z" fill="#fff"/>
    </g>
    <g id="Group_6" data-name="Group 6">
      <path id="Path_34" data-name="Path 34" d="M2205.93,648.353h-4.917V621.881h6.246c.688,0,1.26.007,1.715.018l1.26.035a5.758,5.758,0,0,1,.9.079,8.724,8.724,0,0,1,1.094.254,6.654,6.654,0,0,1,2.188,1,7.862,7.862,0,0,1,2.571,2.9,7.987,7.987,0,0,1,.946,3.771,9.078,9.078,0,0,1-.805,3.788,7.868,7.868,0,0,1-2.345,2.982,6.376,6.376,0,0,1-2.432,1.209,10.615,10.615,0,0,1-1.155.271,6.711,6.711,0,0,1-1.138.1c-.618,0-1.183.007-1.7.018l-1.469.035h-.962Zm0-14.8h1.837c.221,0,.513-.005.875-.017s.588-.018.718-.018a2.987,2.987,0,0,0,.6-.061,4.752,4.752,0,0,0,.655-.183,3.4,3.4,0,0,0,1.741-1.242,3.33,3.33,0,0,0,.657-2.03,3.035,3.035,0,0,0-.691-2,3.551,3.551,0,0,0-1.846-1.147c-.268-.057-.475-.1-.621-.121a3.25,3.25,0,0,0-.534-.036l-1.469-.053h-1.925Z" fill="#fff"/>
      <path id="Path_35" data-name="Path 35" d="M2242.579,648.353V621.881h7.681c.746,0,1.423.025,2.029.071a10.888,10.888,0,0,1,1.593.227,7.635,7.635,0,0,1,3.263,1.575,8.471,8.471,0,0,1,2.231,2.9,8.241,8.241,0,0,1,.839,3.6,8.055,8.055,0,0,1-.139,1.505,9.422,9.422,0,0,1-.472,1.592,7.756,7.756,0,0,1-1.549,2.633,8.172,8.172,0,0,1-2.178,1.671,11.3,11.3,0,0,1-2.537.91l7.156,9.78h-6.054l-6.946-10.147v10.147Zm4.917-13.874h2.677a9.011,9.011,0,0,0,2.065-.192,3.977,3.977,0,0,0,1.855-.91,3.819,3.819,0,0,0,1.207-2.87,3.992,3.992,0,0,0-.35-1.662,3.413,3.413,0,0,0-1.085-1.321,4.323,4.323,0,0,0-1.732-.761c-.21-.034-.473-.064-.787-.087s-.7-.036-1.138-.036H2247.5Z" fill="#fff"/>
      <path id="Path_36" data-name="Path 36" d="M2297.3,621.374a13.814,13.814,0,1,1-9.762,4.051A13.265,13.265,0,0,1,2297.3,621.374Zm0,4.76a8.513,8.513,0,0,0-6.29,2.632,8.73,8.73,0,0,0-2.6,6.36,8.869,8.869,0,0,0,2.633,6.387,8.568,8.568,0,0,0,12.509,0,8.87,8.87,0,0,0,2.634-6.387,8.713,8.713,0,0,0-2.6-6.368A8.523,8.523,0,0,0,2297.3,626.134Z" fill="#fff"/>
      <path id="Path_37" data-name="Path 37" d="M2341.372,648.353h-4.915V621.881h6.247c.686,0,1.258.007,1.713.018l1.259.035a5.755,5.755,0,0,1,.9.079,8.841,8.841,0,0,1,1.1.254,6.653,6.653,0,0,1,2.184,1,7.834,7.834,0,0,1,2.572,2.9,7.961,7.961,0,0,1,.945,3.771,9.08,9.08,0,0,1-.8,3.788,7.865,7.865,0,0,1-2.346,2.982,6.359,6.359,0,0,1-2.43,1.209,10.669,10.669,0,0,1-1.155.271,6.729,6.729,0,0,1-1.139.1c-.618,0-1.182.007-1.7.018l-1.468.035h-.964Zm0-14.8h1.838c.221,0,.513-.005.875-.017s.588-.018.716-.018a2.994,2.994,0,0,0,.6-.061,4.822,4.822,0,0,0,.657-.183,3.412,3.412,0,0,0,1.74-1.242,3.35,3.35,0,0,0,.657-2.03,3.036,3.036,0,0,0-.692-2,3.543,3.543,0,0,0-1.847-1.147c-.267-.057-.474-.1-.621-.121a3.218,3.218,0,0,0-.534-.036l-1.468-.053h-1.926Z" fill="#fff"/>
      <path id="Path_38" data-name="Path 38" d="M2378.022,648.353V621.881h14.223v4.759h-9.308v6.089h8.924v4.759h-8.924v6.106h9.308v4.759Z" fill="#fff"/>
      <path id="Path_39" data-name="Path 39" d="M2418.154,648.353V621.881h7.68c.746,0,1.424.025,2.029.071a10.9,10.9,0,0,1,1.594.227,7.638,7.638,0,0,1,3.261,1.575,8.459,8.459,0,0,1,2.231,2.9,8.23,8.23,0,0,1,.841,3.6,8.139,8.139,0,0,1-.141,1.505,9.245,9.245,0,0,1-.472,1.592,7.71,7.71,0,0,1-1.55,2.633,8.117,8.117,0,0,1-2.176,1.671,11.343,11.343,0,0,1-2.536.91l7.153,9.78h-6.053l-6.946-10.147v10.147Zm4.915-13.874h2.677a9,9,0,0,0,2.065-.192,3.981,3.981,0,0,0,1.856-.91,3.818,3.818,0,0,0,1.206-2.87,3.958,3.958,0,0,0-.351-1.662,3.393,3.393,0,0,0-1.084-1.321,4.333,4.333,0,0,0-1.733-.761c-.21-.034-.471-.064-.787-.087s-.692-.036-1.136-.036h-2.713Z" fill="#fff"/>
      <path id="Path_40" data-name="Path 40" d="M2463.133,648.353V626.64h-4.882v-4.759h14.732v4.759h-4.952v21.713Z" fill="#fff"/>
      <path id="Path_41" data-name="Path 41" d="M2503.371,648.353v-9.78l-8.712-16.692h5.405l5.775,12.178,5.772-12.178h5.372l-8.714,16.692v9.78Z" fill="#fff"/>
    </g>
  </g>
</svg>
